<svg width="500" height="500" viewBox="0 0 500 500" fill="none" xmlns="http://www.w3.org/2000/svg">
<path opacity="0.7" d="M49.617 175.974C49.617 175.974 21.737 247.974 60.917 320.474C100.097 392.974 180.797 431.274 245.387 464.024C309.977 496.774 377.047 480.824 408.917 427.184C440.787 373.544 397.077 335.254 397.017 258.764C396.957 182.274 408.467 162.024 367.017 97.4043C325.567 32.7843 223.957 18.4743 147.117 66.4044C70.277 114.334 49.617 175.974 49.617 175.974Z" fill="white"/>
<path d="M98.1699 313.63C144.41 366.63 191.1 373.34 256.73 385.9C322.36 398.46 370.55 389.78 406.06 357.77C447.06 320.77 445.44 236.01 382.7 205.83C363.1 196.38 339.76 193.52 322.59 180.23C289.8 154.87 263.28 115.41 210.64 108C158 100.59 122.51 135.9 122.51 135.9C79.2799 183.24 51.9299 260.59 98.1699 313.63Z" fill="#F2D7B6"/>
<path opacity="0.7" d="M98.1699 313.63C144.41 366.63 191.1 373.34 256.73 385.9C322.36 398.46 370.55 389.78 406.06 357.77C447.06 320.77 445.44 236.01 382.7 205.83C363.1 196.38 339.76 193.52 322.59 180.23C289.8 154.87 263.28 115.41 210.64 108C158 100.59 122.51 135.9 122.51 135.9C79.2799 183.24 51.9299 260.59 98.1699 313.63Z" fill="white"/>
<path d="M450.95 398.38H60.95V414.38H450.95V398.38Z" fill="#F2D7B6"/>
<path opacity="0.5" d="M450.95 398.38H60.95V414.38H450.95V398.38Z" fill="white"/>
<path d="M275.92 380.77V360.45H216.08V380.77C216.07 387.389 213.83 393.811 209.72 399L207.1 402.3H284.9L282.28 399C278.17 393.811 275.93 387.389 275.92 380.77Z" fill="white" stroke="#2E353A" stroke-linecap="round" stroke-linejoin="round"/>
<path d="M212.4 395H279.6C277.187 390.645 275.921 385.748 275.92 380.77V360.45H216.08V380.77C216.079 385.748 214.812 390.645 212.4 395V395Z" fill="#F2D7B6"/>
<path d="M357.77 186.47H134.22C129.537 186.47 125.74 190.267 125.74 194.95V358.38C125.74 363.063 129.537 366.86 134.22 366.86H357.77C362.453 366.86 366.25 363.063 366.25 358.38V194.95C366.25 190.267 362.453 186.47 357.77 186.47Z" fill="#2E353A" stroke="#2E353A" stroke-linecap="round" stroke-linejoin="round"/>
<path d="M125.74 338.82H366.26V358.37C366.26 360.619 365.367 362.776 363.776 364.366C362.186 365.957 360.029 366.85 357.78 366.85H134.23C131.981 366.85 129.824 365.957 128.234 364.366C126.643 362.776 125.75 360.619 125.75 358.37V358.37V338.82H125.74Z" fill="white" stroke="#2E353A" stroke-linecap="round" stroke-linejoin="round"/>
<path d="M354.16 197.7H137.84V325.14H354.16V197.7Z" fill="white" stroke="#2E353A" stroke-linecap="round" stroke-linejoin="round"/>
<path d="M250.44 352.84C250.44 351.962 250.18 351.103 249.692 350.373C249.204 349.643 248.51 349.074 247.699 348.738C246.888 348.402 245.995 348.314 245.134 348.485C244.273 348.657 243.481 349.079 242.861 349.7C242.24 350.321 241.817 351.112 241.645 351.974C241.474 352.835 241.562 353.728 241.898 354.539C242.234 355.35 242.803 356.044 243.533 356.532C244.263 357.02 245.122 357.28 246 357.28C247.178 357.28 248.307 356.812 249.14 355.979C249.972 355.147 250.44 354.017 250.44 352.84V352.84Z" fill="#2E353A" stroke="#2E353A" stroke-linecap="round" stroke-linejoin="round"/>
<path d="M284.91 402.34H207.1V405.97H284.91V402.34Z" fill="white" stroke="#2E353A" stroke-linecap="round" stroke-linejoin="round"/>
<path d="M352.13 206.68H139.54V217.85H352.13V206.68Z" fill="white" stroke="#2E353A" stroke-linecap="round" stroke-linejoin="round"/>
<path d="M174.62 217.85L172.07 210.95H139.54V217.85V227V319.71H352.13V217.85H174.62Z" fill="#F2D7B6" stroke="#2E353A" stroke-linecap="round" stroke-linejoin="round"/>
<path d="M196.76 268.36H296.44" stroke="#2E353A" stroke-width="2" stroke-linecap="round" stroke-linejoin="round"/>
<path d="M196.76 278.16H296.44" stroke="#2E353A" stroke-width="2" stroke-linecap="round" stroke-linejoin="round"/>
<path d="M196.76 287.96H296.44" stroke="#2E353A" stroke-width="2" stroke-linecap="round" stroke-linejoin="round"/>
<path d="M196.76 297.77H296.44" stroke="#2E353A" stroke-width="2" stroke-linecap="round" stroke-linejoin="round"/>
<path d="M291.17 242.23H200.84C199.91 242.231 198.989 242.049 198.13 241.695C197.27 241.34 196.489 240.82 195.831 240.163C195.172 239.507 194.65 238.727 194.293 237.869C193.936 237.01 193.751 236.09 193.75 235.16V235.16C193.749 234.23 193.931 233.309 194.285 232.45C194.64 231.59 195.16 230.809 195.817 230.151C196.473 229.492 197.253 228.97 198.111 228.613C198.97 228.256 199.89 228.071 200.82 228.07H291.17C292.101 228.069 293.024 228.251 293.885 228.607C294.746 228.963 295.528 229.485 296.186 230.144C296.845 230.802 297.367 231.584 297.723 232.445C298.079 233.306 298.261 234.229 298.26 235.16V235.16C298.259 236.09 298.074 237.01 297.717 237.869C297.36 238.727 296.838 239.507 296.179 240.163C295.521 240.82 294.74 241.34 293.88 241.695C293.021 242.049 292.1 242.231 291.17 242.23Z" fill="white" stroke="#2E353A" stroke-linecap="round" stroke-linejoin="round"/>
<path d="M291.17 242.23H278.83V228.05H291.17C292.102 228.049 293.024 228.231 293.885 228.587C294.746 228.943 295.528 229.465 296.186 230.124C296.845 230.782 297.367 231.564 297.723 232.425C298.079 233.286 298.261 234.208 298.26 235.14V235.14C298.261 236.071 298.079 236.994 297.723 237.855C297.367 238.716 296.845 239.498 296.186 240.156C295.528 240.815 294.746 241.337 293.885 241.693C293.024 242.049 292.102 242.231 291.17 242.23V242.23Z" fill="#2E353A" stroke="#2E353A" stroke-linecap="round" stroke-linejoin="round"/>
<path d="M288.42 229.85C287.833 229.299 287.095 228.936 286.301 228.804C285.506 228.673 284.691 228.781 283.957 229.113C283.224 229.445 282.606 229.988 282.181 230.671C281.756 231.355 281.543 232.15 281.57 232.954C281.596 233.759 281.861 234.538 282.33 235.192C282.799 235.846 283.452 236.347 284.206 236.63C284.959 236.913 285.78 236.966 286.564 236.783C287.348 236.6 288.06 236.188 288.61 235.6V235.6C288.976 235.212 289.263 234.755 289.452 234.256C289.641 233.757 289.73 233.226 289.713 232.692C289.697 232.159 289.575 231.634 289.354 231.148C289.134 230.662 288.82 230.224 288.43 229.86L288.42 229.85ZM288.02 235.05C287.578 235.519 287.008 235.846 286.38 235.991C285.753 236.136 285.096 236.092 284.494 235.864C283.892 235.636 283.37 235.235 282.996 234.711C282.621 234.187 282.41 233.564 282.389 232.92C282.368 232.277 282.538 231.641 282.878 231.094C283.218 230.547 283.712 230.113 284.299 229.847C284.885 229.58 285.537 229.493 286.173 229.597C286.808 229.701 287.399 229.991 287.87 230.43C288.502 231.023 288.873 231.843 288.901 232.709C288.929 233.575 288.612 234.417 288.02 235.05V235.05Z" fill="white"/>
<path d="M291.48 237.08C291.391 236.993 291.278 236.933 291.156 236.909C291.033 236.884 290.906 236.895 290.79 236.94L289.32 235.56C289.245 235.487 289.145 235.446 289.04 235.446C288.935 235.446 288.835 235.487 288.76 235.56L288.63 235.7C288.558 235.778 288.519 235.879 288.519 235.985C288.519 236.091 288.558 236.192 288.63 236.27L290.08 237.63C290.037 237.754 290.03 237.887 290.06 238.015C290.091 238.142 290.156 238.259 290.25 238.35L292.75 240.8C292.915 240.964 293.138 241.056 293.37 241.056C293.602 241.056 293.825 240.964 293.99 240.8V240.8C294.154 240.635 294.246 240.412 294.246 240.18C294.246 239.948 294.154 239.725 293.99 239.56L291.48 237.08Z" fill="white"/>
<path d="M317.3 285C317.592 285.724 318.027 286.383 318.578 286.936C319.13 287.489 319.787 287.926 320.51 288.22C321.64 288.68 323.15 288.58 324.89 289.56C328.82 291.77 338.63 289.8 345.74 290.56C352.85 291.32 362.43 283.45 362.43 283.45L390.64 285V257C390.64 257 361.2 258.23 354.82 255.77C348.44 253.31 341.33 248.17 338.14 248.41C334.95 248.65 308.7 251.6 308.7 251.6L317.29 285H317.3Z" fill="white" stroke="#2E353A" stroke-linecap="round" stroke-linejoin="round"/>
<path d="M310 172.1C304.175 172.745 298.673 175.102 294.188 178.874C289.703 182.647 286.437 187.664 284.804 193.292C283.171 198.92 283.243 204.906 285.012 210.493C286.78 216.08 290.166 221.017 294.741 224.68C299.315 228.342 304.873 230.566 310.712 231.07C316.55 231.574 322.407 230.336 327.542 227.511C332.676 224.686 336.858 220.402 339.558 215.201C342.258 210 343.355 204.115 342.71 198.29V198.29C342.284 194.422 341.1 190.675 339.226 187.265C337.351 183.854 334.822 180.847 331.784 178.414C328.746 175.982 325.259 174.172 321.521 173.089C317.783 172.005 313.868 171.669 310 172.1ZM315.88 225.18C311.207 225.699 306.486 224.821 302.313 222.657C298.139 220.492 294.701 217.139 292.434 213.021C290.166 208.903 289.17 204.205 289.573 199.521C289.975 194.837 291.757 190.377 294.694 186.706C297.631 183.035 301.59 180.318 306.072 178.897C310.553 177.476 315.355 177.416 319.871 178.725C324.386 180.033 328.412 182.651 331.44 186.247C334.468 189.844 336.361 194.258 336.88 198.93C337.225 202.033 336.955 205.173 336.086 208.171C335.218 211.169 333.767 213.967 331.817 216.404C329.867 218.842 327.456 220.872 324.721 222.377C321.987 223.883 318.982 224.835 315.88 225.18V225.18Z" fill="white" stroke="#2E353A" stroke-linecap="round" stroke-linejoin="round"/>
<path d="M309.84 170.41C304.015 171.055 298.512 173.412 294.028 177.184C289.543 180.956 286.277 185.974 284.644 191.602C283.011 197.23 283.083 203.216 284.851 208.803C286.62 214.39 290.006 219.327 294.581 222.99C299.155 226.652 304.713 228.876 310.552 229.38C316.39 229.884 322.247 228.646 327.382 225.821C332.516 222.996 336.698 218.712 339.398 213.511C342.098 208.31 343.195 202.425 342.55 196.6V196.6C341.683 188.791 337.75 181.645 331.616 176.734C325.483 171.823 317.65 169.548 309.84 170.41V170.41ZM315.72 223.49C311.047 224.009 306.326 223.131 302.152 220.967C297.979 218.802 294.541 215.449 292.273 211.331C290.006 207.213 289.01 202.515 289.412 197.831C289.815 193.147 291.597 188.687 294.534 185.016C297.471 181.345 301.43 178.628 305.912 177.207C310.393 175.786 315.195 175.726 319.711 177.034C324.226 178.343 328.252 180.961 331.28 184.557C334.307 188.154 336.201 192.568 336.72 197.24C337.065 200.343 336.795 203.483 335.926 206.481C335.057 209.479 333.607 212.277 331.656 214.714C329.706 217.152 327.295 219.181 324.561 220.687C321.827 222.193 318.822 223.145 315.72 223.49V223.49Z" fill="white" stroke="#2E353A" stroke-linecap="round" stroke-linejoin="round"/>
<path d="M317.336 229.86L315.934 230.015C314.353 230.191 313.214 231.614 313.389 233.195L315.663 253.729C315.838 255.31 317.262 256.45 318.843 256.275L320.244 256.12C321.825 255.945 322.965 254.521 322.79 252.94L320.515 232.406C320.34 230.825 318.917 229.685 317.336 229.86Z" fill="#F2D7B6" stroke="#2E353A" stroke-linecap="round" stroke-linejoin="round"/>
<path d="M316.88 247L319.88 246.68C321.17 246.542 322.463 246.918 323.477 247.727C324.492 248.535 325.147 249.712 325.3 251L329.79 291.61C329.973 293.27 329.488 294.935 328.444 296.238C327.399 297.541 325.88 298.376 324.22 298.56H324.02C323.198 298.652 322.366 298.58 321.571 298.35C320.776 298.119 320.035 297.734 319.39 297.217C318.744 296.7 318.207 296.06 317.809 295.335C317.411 294.609 317.16 293.812 317.07 292.99L312.58 252.39C312.508 251.747 312.563 251.096 312.743 250.475C312.922 249.853 313.223 249.273 313.627 248.768C314.031 248.262 314.531 247.842 315.097 247.53C315.664 247.218 316.287 247.021 316.93 246.95L316.88 247Z" fill="#2E353A" stroke="#2E353A" stroke-linecap="round" stroke-linejoin="round"/>
<path d="M321.24 280.84C321.24 280.84 314.13 281.1 313.13 282.33C312.13 283.56 312.31 287.84 314.24 288.33C319.16 289.62 329.62 288.87 330.03 287.99C330.44 287.11 331.28 281.99 329.12 281.44C326.512 281.04 323.878 280.84 321.24 280.84V280.84Z" fill="white" stroke="#2E353A" stroke-linecap="round" stroke-linejoin="round"/>
<path d="M319.19 270.92C319.19 270.92 310.92 270.61 309.63 272.1C308.34 273.59 308.09 279.16 310.27 280C315.83 282.13 328.34 281.3 328.91 280.2C329.48 279.1 330.72 273.39 328.27 272.47C325.82 271.55 319.19 270.92 319.19 270.92Z" fill="white" stroke="#2E353A" stroke-linecap="round" stroke-linejoin="round"/>
<path d="M318 259.72C318 259.72 309.16 259.38 307.78 260.98C306.4 262.58 306.13 268.52 308.46 269.42C314.46 271.7 327.46 271.7 328.07 270.52C328.68 269.34 330.32 262.36 327.7 261.37C325.08 260.38 318 259.72 318 259.72Z" fill="white" stroke="#2E353A" stroke-linecap="round" stroke-linejoin="round"/>
<path d="M312.9 249.24C312.9 249.24 304.06 248.91 302.68 250.5C301.3 252.09 300.97 258.22 303.36 258.94C305.75 259.66 322.36 261.22 322.97 260.05C323.58 258.88 325.22 251.88 322.6 250.89C319.98 249.9 312.9 249.24 312.9 249.24Z" fill="white" stroke="#2E353A" stroke-linecap="round" stroke-linejoin="round"/>
<path d="M341.85 278.65C340.263 278.214 338.759 277.518 337.4 276.59C330.29 271.68 330.53 260.4 330.53 260.4L328.82 259.91C327.407 259.373 326.083 258.628 324.89 257.7C325.462 260.03 325.798 262.412 325.89 264.81C325.864 266.128 325.349 267.389 324.446 268.348C323.542 269.307 322.314 269.896 321 270C318.79 270.25 317.81 270.49 317.07 267.55C316.33 264.61 312.66 252.83 312.41 251.11C312.19 249.55 314.81 246.77 318.98 246.11C325.39 246.63 331.71 248.42 338.17 248.42C340.418 248.631 342.572 249.424 344.42 250.72" fill="white"/>
<path d="M341.85 278.65C340.263 278.214 338.759 277.518 337.4 276.59C330.29 271.68 330.53 260.4 330.53 260.4L328.82 259.91C327.407 259.373 326.083 258.628 324.89 257.7C325.462 260.03 325.798 262.412 325.89 264.81C325.864 266.128 325.349 267.389 324.446 268.348C323.542 269.307 322.314 269.896 321 270C318.79 270.25 317.81 270.49 317.07 267.55C316.33 264.61 312.66 252.83 312.41 251.11C312.19 249.55 314.81 246.77 318.98 246.11C325.39 246.63 331.71 248.42 338.17 248.42C340.418 248.631 342.572 249.424 344.42 250.72" stroke="#2E353A" stroke-linecap="round" stroke-linejoin="round"/>
<path d="M348.61 279.27C347.831 279.31 347.05 279.31 346.27 279.27Z" fill="white"/>
<path d="M348.61 279.27C347.831 279.31 347.05 279.31 346.27 279.27" stroke="#2E353A" stroke-linecap="round" stroke-linejoin="round"/>
<path d="M353.84 278.3C352.142 278.837 350.386 279.173 348.61 279.3Z" fill="white"/>
<path d="M353.84 278.3C352.142 278.837 350.386 279.173 348.61 279.3" stroke="#2E353A" stroke-linecap="round" stroke-linejoin="round"/>
<path d="M362.67 275.12H371.5" stroke="#2E353A" stroke-linecap="round" stroke-linejoin="round"/>
<path d="M363.41 277.57H367.09" stroke="#2E353A" stroke-linecap="round" stroke-linejoin="round"/>
<path d="M330.53 260.4C330.53 260.4 335.41 260.4 338.61 257.49" stroke="#2E353A" stroke-linecap="round" stroke-linejoin="round"/>
<path d="M324.78 257.38C324.64 256.048 324.361 254.735 323.95 253.46" stroke="#2E353A" stroke-linecap="round" stroke-linejoin="round"/>
<path d="M317 266.26C317 266.26 316.07 263.68 317.2 262.75C318.33 261.82 321.33 260.48 321.85 261.51C322.37 262.54 323.5 267.29 323.19 268.22L322.88 269.15" stroke="#2E353A" stroke-width="0.5" stroke-linecap="round" stroke-linejoin="round"/>
<path d="M452.55 297.55H368V255.99H452.55" fill="#F2D7B6"/>
<path d="M452.55 297.55H368V255.99H452.55" stroke="#2E353A" stroke-linecap="round" stroke-linejoin="round"/>
<path d="M374.2 294.77C375.249 294.77 376.1 293.919 376.1 292.87C376.1 291.821 375.249 290.97 374.2 290.97C373.15 290.97 372.3 291.821 372.3 292.87C372.3 293.919 373.15 294.77 374.2 294.77Z" fill="white" stroke="#2E353A" stroke-linecap="round" stroke-linejoin="round"/>
<path d="M239.83 216.41C240.554 216.118 241.213 215.683 241.766 215.132C242.319 214.58 242.756 213.924 243.05 213.2C243.51 212.07 243.4 210.57 244.39 208.82C246.59 204.9 244.63 195.09 245.39 187.97C246.15 180.85 238.27 171.29 238.27 171.29L239.8 143.08H211.8C211.8 143.08 213.02 172.52 210.57 178.89C208.12 185.26 202.97 192.39 203.21 195.58C203.45 198.77 206.42 225 206.42 225L239.78 216.41H239.83Z" fill="white" stroke="#2E353A" stroke-linecap="round" stroke-linejoin="round"/>
<path d="M127 223.69C127.64 229.515 129.994 235.02 133.763 239.508C137.532 243.995 142.547 247.265 148.174 248.902C153.801 250.539 159.787 250.471 165.376 248.706C170.964 246.942 175.904 243.559 179.57 238.987C183.236 234.414 185.463 228.858 185.971 223.019C186.479 217.181 185.244 211.323 182.422 206.187C179.601 201.05 175.319 196.866 170.12 194.162C164.92 191.459 159.035 190.359 153.21 191H153.14C145.342 191.877 138.211 195.811 133.31 201.94C128.41 208.068 126.14 215.89 127 223.69V223.69ZM180 217.8C180.521 222.474 179.644 227.198 177.48 231.374C175.316 235.55 171.963 238.99 167.844 241.26C163.725 243.53 159.025 244.528 154.339 244.127C149.653 243.726 145.191 241.945 141.518 239.008C137.844 236.071 135.124 232.111 133.701 227.629C132.278 223.146 132.216 218.342 133.523 213.824C134.83 209.306 137.448 205.278 141.044 202.247C144.641 199.217 149.056 197.321 153.73 196.8V196.8C159.998 196.103 166.286 197.924 171.212 201.862C176.138 205.8 179.299 211.533 180 217.8V217.8Z" fill="white" stroke="#2E353A" stroke-linecap="round" stroke-linejoin="round"/>
<path d="M125.27 223.87C125.916 229.692 128.274 235.191 132.046 239.673C135.817 244.155 140.833 247.417 146.458 249.049C152.084 250.681 158.067 250.608 163.651 248.839C169.235 247.071 174.17 243.687 177.831 239.114C181.492 234.542 183.715 228.987 184.219 223.151C184.723 217.315 183.486 211.461 180.664 206.329C177.841 201.196 173.56 197.016 168.362 194.316C163.164 191.616 157.282 190.518 151.46 191.16C147.592 191.587 143.846 192.772 140.436 194.647C137.026 196.522 134.02 199.051 131.587 202.088C129.155 205.126 127.345 208.613 126.261 212.351C125.177 216.088 124.841 220.002 125.27 223.87ZM178.35 218C178.869 222.673 177.991 227.394 175.827 231.567C173.662 235.741 170.309 239.179 166.191 241.447C162.073 243.714 157.375 244.71 152.691 244.307C148.007 243.905 143.547 242.123 139.876 239.186C136.205 236.249 133.488 232.29 132.067 227.808C130.646 223.327 130.586 218.525 131.894 214.009C133.203 209.494 135.821 205.468 139.417 202.44C143.014 199.412 147.428 197.519 152.1 197C155.203 196.655 158.343 196.925 161.341 197.794C164.339 198.663 167.137 200.113 169.574 202.063C172.012 204.013 174.042 206.425 175.547 209.159C177.053 211.893 178.005 214.898 178.35 218V218Z" fill="white" stroke="#2E353A" stroke-linecap="round" stroke-linejoin="round"/>
<path d="M207.807 210.936L187.273 213.21C185.692 213.385 184.552 214.809 184.727 216.39L184.882 217.791C185.057 219.372 186.481 220.512 188.062 220.336L208.596 218.062C210.177 217.887 211.317 216.464 211.142 214.883L210.987 213.481C210.812 211.9 209.388 210.761 207.807 210.936Z" fill="#F2D7B6" stroke="#2E353A" stroke-linecap="round" stroke-linejoin="round"/>
<path d="M201.86 216.84L201.53 213.84C201.387 212.54 201.766 211.237 202.583 210.217C203.401 209.197 204.59 208.543 205.89 208.4L246.49 203.91C247.316 203.814 248.152 203.882 248.951 204.11C249.751 204.339 250.497 204.723 251.148 205.24C251.798 205.758 252.34 206.399 252.742 207.126C253.144 207.854 253.398 208.654 253.49 209.48V209.48V209.68C253.586 210.506 253.518 211.342 253.29 212.142C253.061 212.941 252.677 213.687 252.16 214.338C251.642 214.988 251.001 215.53 250.274 215.932C249.546 216.334 248.746 216.588 247.92 216.68L207.32 221.17C206.022 221.316 204.719 220.943 203.696 220.132C202.673 219.32 202.013 218.137 201.86 216.84Z" fill="#2E353A" stroke="#2E353A" stroke-linecap="round" stroke-linejoin="round"/>
<path d="M235.69 212.48C235.69 212.48 235.96 219.58 237.18 220.58C238.4 221.58 242.7 221.4 243.18 219.47C244.48 214.56 243.72 204.09 242.84 203.69C241.96 203.29 236.84 202.43 236.3 204.6C235.897 207.207 235.693 209.842 235.69 212.48V212.48Z" fill="white" stroke="#2E353A" stroke-linecap="round" stroke-linejoin="round"/>
<path d="M225.78 214.52C225.78 214.52 225.46 222.79 226.95 224.08C228.44 225.37 234.01 225.63 234.85 223.44C236.99 217.88 236.15 205.37 235.05 204.81C233.95 204.25 228.24 203 227.32 205.45C226.4 207.9 225.78 214.52 225.78 214.52Z" fill="white" stroke="#2E353A" stroke-linecap="round" stroke-linejoin="round"/>
<path d="M214.58 215.73C214.58 215.73 214.24 224.57 215.83 225.95C217.42 227.33 223.38 227.6 224.28 225.26C226.56 219.32 226.56 206.26 225.38 205.66C224.2 205.06 217.21 203.41 216.23 206.03C215.25 208.65 214.58 215.73 214.58 215.73Z" fill="white" stroke="#2E353A" stroke-linecap="round" stroke-linejoin="round"/>
<path d="M204.1 220.82C204.1 220.82 203.76 229.66 205.36 231.04C206.96 232.42 213.08 232.75 213.8 230.35C214.52 227.95 216.08 211.35 214.9 210.74C213.72 210.13 206.74 208.5 205.75 211.12C204.76 213.74 204.1 220.82 204.1 220.82Z" fill="white" stroke="#2E353A" stroke-linecap="round" stroke-linejoin="round"/>
<path d="M234.12 185.08C234.527 189.019 233.582 192.98 231.44 196.31C226.54 203.43 215.25 203.18 215.25 203.18L214.76 204.9C214.226 206.311 213.481 207.633 212.55 208.82C214.883 208.247 217.269 207.912 219.67 207.82C220.983 207.858 222.236 208.381 223.187 209.287C224.137 210.194 224.719 211.42 224.82 212.73C225.07 214.94 225.31 215.92 222.37 216.65C219.43 217.38 207.65 221.07 205.93 221.32C204.37 221.54 201.59 218.92 200.93 214.75C201.46 208.34 203.25 202.01 203.25 195.56C203.459 193.309 204.252 191.151 205.55 189.3" fill="white"/>
<path d="M234.12 185.08C234.527 189.019 233.582 192.98 231.44 196.31C226.54 203.43 215.25 203.18 215.25 203.18L214.76 204.9C214.226 206.311 213.481 207.633 212.55 208.82C214.883 208.247 217.269 207.912 219.67 207.82C220.983 207.858 222.236 208.381 223.187 209.287C224.137 210.194 224.719 211.42 224.82 212.73C225.07 214.94 225.31 215.92 222.37 216.65C219.43 217.38 207.65 221.07 205.93 221.32C204.37 221.54 201.59 218.92 200.93 214.75C201.46 208.34 203.25 202.01 203.25 195.56C203.459 193.309 204.252 191.151 205.55 189.3" stroke="#2E353A" stroke-linecap="round" stroke-linejoin="round"/>
<path d="M233.16 179.88C233.456 180.816 233.683 181.771 233.84 182.74Z" fill="white"/>
<path d="M233.16 179.88C233.456 180.816 233.683 181.771 233.84 182.74" stroke="#2E353A" stroke-linecap="round" stroke-linejoin="round"/>
<path d="M229.97 171.04V162.21" stroke="#2E353A" stroke-linecap="round" stroke-linejoin="round"/>
<path d="M232.42 170.31V166.63" stroke="#2E353A" stroke-linecap="round" stroke-linejoin="round"/>
<path d="M215.25 203.18C215.25 203.18 215.25 198.3 212.34 195.1" stroke="#2E353A" stroke-linecap="round" stroke-linejoin="round"/>
<path d="M212.24 208.94C210.909 209.077 209.595 209.352 208.32 209.76" stroke="#2E353A" stroke-linecap="round" stroke-linejoin="round"/>
<path d="M221.12 216.68C221.12 216.68 218.54 217.61 217.61 216.47C216.68 215.33 215.34 212.34 216.37 211.83C217.4 211.32 222.15 210.18 223.08 210.49L224.01 210.79" stroke="#2E353A" stroke-width="0.5" stroke-linecap="round" stroke-linejoin="round"/>
<path d="M252.41 81.16V165.71H210.84V81.16" fill="#F2D7B6"/>
<path d="M252.41 81.16V165.71H210.84V81.16" stroke="#2E353A" stroke-linecap="round" stroke-linejoin="round"/>
<path d="M247.72 161.41C248.769 161.41 249.62 160.559 249.62 159.51C249.62 158.461 248.769 157.61 247.72 157.61C246.67 157.61 245.82 158.461 245.82 159.51C245.82 160.559 246.67 161.41 247.72 161.41Z" fill="white" stroke="#2E353A" stroke-linecap="round" stroke-linejoin="round"/>
<path d="M198 367C197.709 367.725 197.275 368.384 196.724 368.938C196.172 369.491 195.514 369.927 194.79 370.22C193.66 370.69 192.16 370.58 190.41 371.56C186.49 373.77 176.68 371.81 169.56 372.56C162.44 373.31 152.88 365.45 152.88 365.45L124.64 367V339C124.64 339 154.08 340.23 160.46 337.78C166.84 335.33 173.95 330.17 177.14 330.42C180.33 330.67 206.58 333.61 206.58 333.61L198 367Z" fill="white" stroke="#2E353A" stroke-linecap="round" stroke-linejoin="round"/>
<path d="M205.25 254.16C211.075 254.805 216.577 257.162 221.062 260.934C225.547 264.707 228.813 269.724 230.446 275.352C232.079 280.98 232.007 286.966 230.238 292.553C228.47 298.14 225.084 303.077 220.509 306.74C215.935 310.402 210.377 312.626 204.538 313.13C198.7 313.634 192.843 312.396 187.708 309.571C182.574 306.746 178.392 302.462 175.692 297.261C172.992 292.06 171.895 286.175 172.54 280.35V280.35C173.405 272.542 177.336 265.397 183.468 260.488C189.6 255.578 197.432 253.305 205.24 254.17L205.25 254.16ZM199.37 307.24C204.044 307.761 208.768 306.884 212.944 304.72C217.12 302.557 220.56 299.203 222.83 295.084C225.1 290.965 226.098 286.265 225.697 281.579C225.296 276.893 223.515 272.432 220.578 268.758C217.641 265.084 213.681 262.364 209.199 260.941C204.716 259.518 199.912 259.456 195.394 260.763C190.876 262.07 186.848 264.688 183.817 268.285C180.787 271.881 178.891 276.296 178.37 280.97V280.97C177.674 287.238 179.494 293.526 183.432 298.452C187.37 303.378 193.103 306.539 199.37 307.24V307.24Z" fill="white" stroke="#2E353A" stroke-linecap="round" stroke-linejoin="round"/>
<path d="M205.43 252.47C211.252 253.117 216.751 255.475 221.233 259.247C225.715 263.019 228.978 268.035 230.609 273.661C232.24 279.288 232.166 285.271 230.397 290.855C228.627 296.44 225.242 301.374 220.669 305.034C216.095 308.694 210.539 310.917 204.703 311.42C198.867 311.922 193.013 310.684 187.881 307.86C182.748 305.036 178.569 300.753 175.87 295.554C173.172 290.355 172.075 284.472 172.72 278.65C173.148 274.783 174.334 271.038 176.209 267.629C178.085 264.221 180.614 261.215 183.651 258.784C186.689 256.353 190.176 254.544 193.913 253.46C197.649 252.377 201.563 252.04 205.43 252.47V252.47ZM199.55 305.55C204.224 306.071 208.948 305.194 213.124 303.03C217.299 300.866 220.74 297.513 223.01 293.394C225.28 289.275 226.278 284.575 225.877 279.889C225.476 275.203 223.695 270.741 220.758 267.068C217.821 263.394 213.861 260.674 209.379 259.251C204.896 257.828 200.092 257.766 195.574 259.073C191.056 260.38 187.028 262.998 183.997 266.595C180.967 270.191 179.071 274.606 178.55 279.28C177.856 285.545 179.679 291.83 183.616 296.752C187.554 301.674 193.285 304.831 199.55 305.53V305.55Z" fill="white" stroke="#2E353A" stroke-linecap="round" stroke-linejoin="round"/>
<path d="M194.748 314.467L192.474 335.001C192.298 336.582 193.438 338.005 195.019 338.181L196.42 338.336C198.001 338.511 199.425 337.371 199.6 335.79L201.874 315.256C202.049 313.675 200.91 312.251 199.329 312.076L197.927 311.921C196.346 311.746 194.923 312.886 194.748 314.467Z" fill="#F2D7B6" stroke="#2E353A" stroke-linecap="round" stroke-linejoin="round"/>
<path d="M191.27 380.66H191.07C190.243 380.569 189.443 380.316 188.714 379.914C187.986 379.513 187.345 378.971 186.827 378.32C186.309 377.67 185.925 376.923 185.697 376.123C185.47 375.323 185.403 374.486 185.5 373.66L189.99 333.06C190.06 332.416 190.256 331.792 190.567 331.224C190.878 330.656 191.299 330.155 191.804 329.75C192.31 329.345 192.89 329.044 193.512 328.864C194.135 328.683 194.786 328.628 195.43 328.7L198.43 329.03C199.729 329.173 200.919 329.827 201.736 330.847C202.554 331.867 202.933 333.171 202.79 334.47L198.3 375.12C198.207 375.946 197.952 376.745 197.549 377.472C197.147 378.199 196.605 378.839 195.955 379.357C195.305 379.874 194.559 380.258 193.76 380.487C192.961 380.716 192.125 380.785 191.3 380.69L191.27 380.66Z" fill="#2E353A" stroke="#2E353A" stroke-linecap="round" stroke-linejoin="round"/>
<path d="M194 362.89C194 362.89 201.1 363.16 202.1 364.38C203.1 365.6 202.92 369.89 200.99 370.38C196.08 371.68 185.61 370.92 185.21 370.04C184.81 369.16 183.95 364.04 186.12 363.49C188.728 363.09 191.362 362.89 194 362.89Z" fill="white" stroke="#2E353A" stroke-linecap="round" stroke-linejoin="round"/>
<path d="M196.08 353C196.08 353 204.35 352.68 205.64 354.17C206.93 355.66 207.19 361.23 205 362.07C199.44 364.2 186.93 363.37 186.37 362.27C185.81 361.17 184.56 355.46 187.01 354.54C189.46 353.62 196.08 353 196.08 353Z" fill="white" stroke="#2E353A" stroke-linecap="round" stroke-linejoin="round"/>
<path d="M197.29 341.77C197.29 341.77 206.13 341.44 207.51 343.03C208.89 344.62 209.16 350.58 206.83 351.47C200.83 353.76 187.83 353.75 187.22 352.58C186.61 351.41 184.97 344.41 187.59 343.42C190.21 342.43 197.29 341.77 197.29 341.77Z" fill="white" stroke="#2E353A" stroke-linecap="round" stroke-linejoin="round"/>
<path d="M202.38 331.3C202.38 331.3 211.22 330.96 212.6 332.55C213.98 334.14 214.31 340.28 211.91 341C209.51 341.72 192.91 343.27 192.3 342.1C191.69 340.93 190.06 333.93 192.68 332.95C195.3 331.97 202.38 331.3 202.38 331.3Z" fill="white" stroke="#2E353A" stroke-linecap="round" stroke-linejoin="round"/>
<path d="M168 361.37C171.487 361.507 174.931 360.553 177.85 358.64C184.97 353.73 184.72 342.45 184.72 342.45L186.44 341.96C187.851 341.426 189.173 340.681 190.36 339.75C189.787 342.08 189.452 344.462 189.36 346.86C189.398 348.174 189.92 349.428 190.827 350.381C191.733 351.333 192.959 351.917 194.27 352.02C196.48 352.26 197.46 352.51 198.2 349.56C198.94 346.61 202.61 334.84 202.86 333.13C203.11 331.42 200.46 328.78 196.29 328.13C189.88 328.66 183.55 330.45 177.1 330.45C174.851 330.66 172.694 331.449 170.84 332.74" fill="white"/>
<path d="M168 361.37C171.487 361.507 174.931 360.553 177.85 358.64C184.97 353.73 184.72 342.45 184.72 342.45L186.44 341.96C187.851 341.426 189.173 340.681 190.36 339.75C189.787 342.08 189.452 344.462 189.36 346.86C189.398 348.174 189.92 349.428 190.827 350.381C191.733 351.333 192.959 351.917 194.27 352.02C196.48 352.26 197.46 352.51 198.2 349.56C198.94 346.61 202.61 334.84 202.86 333.13C203.11 331.42 200.46 328.78 196.29 328.13C189.88 328.66 183.55 330.45 177.1 330.45C174.851 330.66 172.694 331.449 170.84 332.74" stroke="#2E353A" stroke-linecap="round" stroke-linejoin="round"/>
<path d="M161.44 360.36C162.838 360.79 164.275 361.081 165.73 361.23Z" fill="white"/>
<path d="M161.44 360.36C162.838 360.79 164.275 361.081 165.73 361.23" stroke="#2E353A" stroke-linecap="round" stroke-linejoin="round"/>
<path d="M152.6 357.17H143.77" stroke="#2E353A" stroke-linecap="round" stroke-linejoin="round"/>
<path d="M151.87 359.62H148.19" stroke="#2E353A" stroke-linecap="round" stroke-linejoin="round"/>
<path d="M184.74 342.45C184.74 342.45 179.86 342.45 176.66 339.54" stroke="#2E353A" stroke-linecap="round" stroke-linejoin="round"/>
<path d="M190.5 339.43C190.637 338.099 190.912 336.785 191.32 335.51" stroke="#2E353A" stroke-linecap="round" stroke-linejoin="round"/>
<path d="M198.24 348.31C198.24 348.31 199.17 345.73 198.03 344.8C196.89 343.87 193.9 342.53 193.39 343.56C192.88 344.59 191.74 349.35 192.05 350.27L192.36 351.2" stroke="#2E353A" stroke-width="0.5" stroke-linecap="round" stroke-linejoin="round"/>
<path d="M62.72 379.61H147.27V338.04H62.72" fill="#F2D7B6"/>
<path d="M62.72 379.61H147.27V338.04H62.72" stroke="#2E353A" stroke-linecap="round" stroke-linejoin="round"/>
<path d="M139.17 374.92C139.17 375.296 139.281 375.663 139.49 375.976C139.699 376.288 139.996 376.532 140.343 376.675C140.69 376.819 141.072 376.857 141.441 376.784C141.809 376.71 142.148 376.529 142.413 376.264C142.679 375.998 142.86 375.659 142.933 375.291C143.007 374.922 142.969 374.54 142.825 374.193C142.681 373.846 142.438 373.549 142.126 373.34C141.813 373.131 141.446 373.02 141.07 373.02V373.02C140.566 373.02 140.083 373.22 139.726 373.577C139.37 373.933 139.17 374.416 139.17 374.92Z" fill="white" stroke="#2E353A" stroke-linecap="round" stroke-linejoin="round"/>
</svg>
